<?xml version="1.0" encoding="utf-8"?>
<!-- Generator: Adobe Illustrator 24.0.2, SVG Export Plug-In . SVG Version: 6.00 Build 0)  -->
<svg version="1.1" id="Livello_1" xmlns="http://www.w3.org/2000/svg" xmlns:xlink="http://www.w3.org/1999/xlink" x="0px" y="0px"
	 viewBox="0 0 105 27.3" style="enable-background:new 0 0 105 27.3;" xml:space="preserve">
<style type="text/css">
	.st0{fill:#FFD002;}
	.st1{fill:#020203;}
</style>
<ellipse transform="matrix(1 -9.250113e-03 9.250113e-03 1 -0.1452 0.1075)" class="st0" cx="11.6" cy="15.8" rx="11.6" ry="11.6"/>
<path class="st1" d="M103.2,18.9c-2.2,1.4-3.6-2-7-3.7c2.5-0.9,5.3,1.6,5.3,0.7c0-1.7-1.4-3.2-3.2-3.2c-1.7,0-3.2,1.4-3.2,3.2
	s1.4,3.2,3.2,3.2c0.2,0,0.4,0,0.6-0.1v3.4c-0.2,0-0.4,0-0.6,0c-3.6,0-6.6-2.9-6.6-6.6s2.9-6.6,6.6-6.6s6.6,2.9,6.6,6.6
	C105,16.7,104.7,18.1,103.2,18.9z"/>
<path class="st1" d="M87.8,16v6.5h-3.4v-6.6c0-3.6,2.9-6.5,6.5-6.5h0.5v3.4h-0.3C89.3,12.8,87.8,14.2,87.8,16z"/>
<path class="st1" d="M76.4,9.3c-3.7,0-6.6,2.9-6.6,6.6c0,3.7,3,6.6,6.6,6.6c3.7,0,6.6-2.9,6.6-6.6C83,12.2,80.1,9.3,76.4,9.3z
	 M76.4,19.2c-1.8,0-3.2-1.4-3.2-3.2s1.5-3.2,3.2-3.2c1.8,0,3.2,1.4,3.2,3.2S78.1,19.2,76.4,19.2z"/>
<path class="st1" d="M61.8,9.2c-3.4,0-6.2,2.6-6.5,6v12.1h0.2c1.8,0,3.2-1.4,3.2-3.2v-2.6c1,0.5,2.1,0.8,3.2,0.8
	c3.6,0,6.5-2.8,6.5-6.5S65.4,9.2,61.8,9.2z M61.9,19c-1.8,0-3.2-1.4-3.2-3.2s1.5-3.2,3.2-3.2c1.7,0,3.2,1.4,3.2,3.2S63.6,19,61.9,19
	z"/>
<path class="st1" d="M53.3,10.3c-0.7,0-1.4,0.3-2,0.7c-1.2-1.1-2.7-1.7-4.4-1.7c-3.7,0-6.6,2.9-6.6,6.6c0,3.7,3,6.6,6.6,6.6
	c1.2,0,2.3-0.3,3.2-0.8v0.8h0.2c1.8,0,3.2-1.5,3.2-3.3v-8.9H53.3z M47,19.2c-1.8,0-3.2-1.4-3.2-3.2s1.5-3.2,3.2-3.2s3.2,1.4,3.2,3.2
	S48.7,19.2,47,19.2z"/>
<path class="st1" d="M38.2,12.8L38.2,12.8v6.5l0,0c-0.1,3.5-2.9,6.3-6.5,6.3h-0.5v-3.4h0.3c1.8,0,3.2-1.4,3.2-3.2l0,0v-6.5l0,0
	c0.1-3.5,2.9-6.3,6.5-6.3h0.5v3.4h-0.3C39.6,9.5,38.2,11,38.2,12.8z"/>
<path class="st1" d="M30.2,12.8L30.2,12.8v6.5l0,0c-0.1,3.5-2.9,6.3-6.5,6.3h-0.5v-3.4h0.3c1.8,0,3.2-1.4,3.2-3.2l0,0v-6.5l0,0
	c0.1-3.5,2.9-6.3,6.5-6.3h0.5v3.4h-0.3C31.7,9.5,30.2,11,30.2,12.8z"/>
<circle class="st1" cx="22.5" cy="2.1" r="2.1"/>
<path class="st1" d="M18,4.2c-1.8,0-3.2,1.4-3.2,3.2v2.5c-1-0.5-2.1-0.8-3.2-0.8C7.9,9.1,5,12,5,15.7s3,6.6,6.6,6.6
	c3.4,0,6.2-2.6,6.6-6V4.2H18z M11.1,19c-1.3-0.2-2.3-1.1-2.6-2.3c-0.5-2.2,1.1-4,3.1-4c1.7,0,3.2,1.4,3.2,3.2
	C14.8,17.8,13.1,19.2,11.1,19z"/>
<path class="st1" d="M24.1,7h0.2v9.4c0,1.8-1.4,3.2-3.2,3.2h-0.2v-3.9l0,0v-5.5C20.9,8.4,22.3,7,24.1,7z"/>
</svg>
